<svg xmlns="http://www.w3.org/2000/svg" width="63.26" height="82.5" viewBox="0 0 63.26 82.5"><defs><style>.cls-1{fill:none;stroke:#dd003b;stroke-linecap:round;stroke-linejoin:round;stroke-width:2.5px;}</style></defs><g id="Layer_2" data-name="Layer 2"><g id="Layer_1-2" data-name="Layer 1"><polygon class="cls-1" points="31.63 18.34 35.24 26.91 44.21 27.48 37.19 33.57 39.41 42.27 31.45 37.47 23.86 42.27 25.96 33.22 19.05 27.48 28.31 26.69 31.63 18.34 31.63 18.34"/><polyline class="cls-1" points="31.94 65.33 24.74 81.1 15.3 70.96 1.58 73.46 8.39 51.92"/><polyline class="cls-1" points="30.52 61.99 38.73 81.25 47.59 70.13 61.72 73.11 54.23 51.95"/><path class="cls-1" d="M31.63,9.73a21.9,21.9,0,1,1-21.9,21.9,21.89,21.89,0,0,1,21.9-21.9Z"/><path class="cls-1" d="M31.63,1.25A30.38,30.38,0,1,1,1.25,31.63,30.38,30.38,0,0,1,31.63,1.25Z"/></g></g></svg>