<svg xmlns="http://www.w3.org/2000/svg" width="116.69" height="83" viewBox="0 0 116.69 83"><defs><style>.cls-1{fill:none;stroke:#dd003b;stroke-linecap:round;stroke-linejoin:round;stroke-width:3px;}</style></defs><g id="Layer_2" data-name="Layer 2"><g id="Layer_1-2" data-name="Layer 1"><path class="cls-1" d="M23.4,37.7A21.9,21.9,0,1,1,1.5,59.6,21.89,21.89,0,0,1,23.4,37.7Z"/><path class="cls-1" d="M93.29,37.7a21.9,21.9,0,1,1-21.9,21.9,21.89,21.89,0,0,1,21.9-21.9Z"/><polyline class="cls-1" points="93.29 59.6 84.78 27.03 82.72 6.95 71.31 6.49 65.41 1.5"/><line class="cls-1" x1="24.55" y1="11.49" x2="46.88" y2="11.49"/><line class="cls-1" x1="33.21" y1="11.49" x2="53.54" y2="53.16"/><polyline class="cls-1" points="60.62 53.89 84.78 27.03 41.32 27.03 23.4 59.6 51.18 59.6"/><path class="cls-1" d="M56.27,52.47a5.38,5.38,0,1,1-5.38,5.38,5.37,5.37,0,0,1,5.38-5.38Z"/></g></g></svg>