<svg xmlns="http://www.w3.org/2000/svg" width="82.8" height="83" viewBox="0 0 82.8 83"><defs><style>.cls-1{fill:none;stroke:#dd003b;stroke-linecap:round;stroke-linejoin:round;stroke-width:3px;}</style></defs><g id="Layer_2" data-name="Layer 2"><g id="Layer_1-2" data-name="Layer 1"><path class="cls-1" d="M4,19h74.9a2.46,2.46,0,0,1,2.45,2.46V79.05a2.45,2.45,0,0,1-2.45,2.45H4A2.45,2.45,0,0,1,1.5,79.05V21.43A2.46,2.46,0,0,1,4,19Z"/><path class="cls-1" d="M1.85,19,11.7,3.56c.63-1,3.2-2.06,4.54-2.06H66.57c1.34,0,3.92,1.08,4.54,2.06L81,19"/><polyline class="cls-1" points="47.21 1.5 50.05 18.89 50.05 30.82 32.75 30.82 32.75 18.89 35.59 1.5"/></g></g></svg>