<svg xmlns="http://www.w3.org/2000/svg" width="81.47" height="83" viewBox="0 0 81.47 83"><defs><style>.cls-1{fill:none;stroke:#dd003b;stroke-linecap:round;stroke-linejoin:round;stroke-width:3px;}</style></defs><g id="Layer_2" data-name="Layer 2"><g id="Layer_1-2" data-name="Layer 1"><path class="cls-1" d="M3.91,62.94H77.56A2.41,2.41,0,0,1,80,65.35V79.09a2.41,2.41,0,0,1-2.41,2.41H3.91A2.41,2.41,0,0,1,1.5,79.09V65.35a2.41,2.41,0,0,1,2.41-2.41Z"/><path class="cls-1" d="M28.23,45.75H65.48c1.32,0,3.86,1.07,4.47,2L79.63,63"/><path class="cls-1" d="M1.84,63l9.69-15.23c.62-1,3.14-2,4.46-2h4.34"/><path class="cls-1" d="M20.33,45.76l-.1,3.63a3.94,3.94,0,0,0,3.94,4.07h0a4,4,0,0,0,3.94-4.07L26.75,4a2.58,2.58,0,0,0-2.58-2.5h0A2.58,2.58,0,0,0,21.59,4L20.33,45.76"/><path class="cls-1" d="M67.25,70.24a2,2,0,1,1-2.06,2,2,2,0,0,1,2.06-2Z"/></g></g></svg>