<svg xmlns="http://www.w3.org/2000/svg" width="80.67" height="83" viewBox="0 0 80.67 83"><defs><style>.cls-1{fill:none;stroke:#dd003b;stroke-linecap:round;stroke-linejoin:round;stroke-width:3px;}</style></defs><g id="Layer_2" data-name="Layer 2"><g id="Layer_1-2" data-name="Layer 1"><path class="cls-1" d="M44.86,29.81A16.09,16.09,0,1,0,60.94,45.9,16.09,16.09,0,0,0,44.86,29.81Z"/><path class="cls-1" d="M71.09,1.5a8.08,8.08,0,1,0,8.08,8.07A8.07,8.07,0,0,0,71.09,1.5Z"/><path class="cls-1" d="M70.26,65.35a8.08,8.08,0,1,0,8.07,8.08,8.08,8.08,0,0,0-8.07-8.08Z"/><path class="cls-1" d="M31.12,5.44a8.08,8.08,0,1,0,8.08,8.08,8.07,8.07,0,0,0-8.08-8.08Z"/><line class="cls-1" x1="38.58" y1="31.09" x2="34.31" y2="21.03"/><line class="cls-1" x1="66.14" y1="16.43" x2="54.28" y2="32.86"/><line class="cls-1" x1="55.77" y1="57.72" x2="64.58" y2="67.27"/><path class="cls-1" d="M18,65.07A8.07,8.07,0,1,0,28.3,70,8.07,8.07,0,0,0,18,65.07Z"/><line class="cls-1" x1="26.16" y1="66.61" x2="34.08" y2="57.84"/><line class="cls-1" x1="29.2" y1="42.19" x2="12.81" y2="38.32"/><path class="cls-1" d="M5.86,31.3a5.75,5.75,0,1,0,7,4.19,5.75,5.75,0,0,0-7-4.19Z"/></g></g></svg>