<svg xmlns="http://www.w3.org/2000/svg" width="113" height="83" viewBox="0 0 113 83"><defs><style>.cls-1{fill:none;stroke:#fff;stroke-linecap:round;stroke-linejoin:round;stroke-width:3px;}</style></defs><g id="Layer_2" data-name="Layer 2"><g id="Layer_1-2" data-name="Layer 1"><path class="cls-1" d="M70.64,27.36A20,20,0,1,1,42.36,55.64"/><path class="cls-1" d="M36.5,41.5a20,20,0,0,1,20-20"/><path class="cls-1" d="M70.25,7.75A69.93,69.93,0,0,0,56.5,6.5"/><path class="cls-1" d="M28.13,69.87c8.13,4.61,17.24,6.63,28.37,6.63,24.37,0,39.06-9.69,55-35-8.66-13.75-17-22.9-26.63-28.38"/><path class="cls-1" d="M16.79,61.21A107.22,107.22,0,0,1,1.5,41.5c15.94-25.31,30.62-35,55-35"/><line class="cls-1" x1="16.5" y1="81.5" x2="96.5" y2="1.5"/></g></g></svg>