<svg xmlns="http://www.w3.org/2000/svg" width="83" height="83" viewBox="0 0 83 83"><defs><style>.cls-1{fill:none;stroke:#dd003b;stroke-linecap:round;stroke-linejoin:round;stroke-width:3px;}</style></defs><g id="Layer_2" data-name="Layer 2"><g id="Layer_1-2" data-name="Layer 1"><path class="cls-1" d="M75.49,21.14H69.54c-.26,0-.48.37-.48.81V32c0,.44.22.81.48.81h5.95c.27,0,.48-.37.48-.81V22c0-.44-.21-.81-.48-.81Z"/><path class="cls-1" d="M75.49,50.17H69.54c-.26,0-.48.37-.48.81V61.05c0,.44.22.81.48.81h5.95c.27,0,.48-.37.48-.81V51c0-.44-.21-.81-.48-.81Z"/><path class="cls-1" d="M72.66,20v-5.3a4.33,4.33,0,0,0-4.32-4.32H14.66a4.33,4.33,0,0,0-4.32,4.32V68.34a4.33,4.33,0,0,0,4.32,4.32H68.34a4.33,4.33,0,0,0,4.32-4.32v-6"/><polyline class="cls-1" points="72.66 49.61 72.66 41.5 72.66 34.09"/><path class="cls-1" d="M41.5,23.64A17.86,17.86,0,1,0,59.36,41.5,17.85,17.85,0,0,0,41.5,23.64Z"/><path class="cls-1" d="M41.5,32A9.46,9.46,0,1,0,51,41.5,9.45,9.45,0,0,0,41.5,32Z"/><path class="cls-1" d="M71.18,1.5H11.82A10.35,10.35,0,0,0,1.5,11.82V71.18A10.35,10.35,0,0,0,11.82,81.5H71.18A10.35,10.35,0,0,0,81.5,71.18V11.82A10.35,10.35,0,0,0,71.18,1.5Z"/><line class="cls-1" x1="41.5" y1="23.64" x2="41.5" y2="27.92"/><line class="cls-1" x1="28.87" y1="28.87" x2="31.89" y2="31.89"/><line class="cls-1" x1="23.64" y1="41.5" x2="27.92" y2="41.5"/><line class="cls-1" x1="28.87" y1="54.13" x2="31.89" y2="51.1"/><line class="cls-1" x1="41.5" y1="59.36" x2="41.5" y2="55.08"/><line class="cls-1" x1="54.13" y1="54.13" x2="51.11" y2="51.1"/><line class="cls-1" x1="59.36" y1="41.5" x2="55.08" y2="41.5"/><line class="cls-1" x1="54.13" y1="28.87" x2="51.11" y2="31.89"/></g></g></svg>