<svg xmlns="http://www.w3.org/2000/svg" viewBox="0 0 259.01 35"><defs><style>.cls-1{fill:#fff;}</style></defs><g id="Layer_2" data-name="Layer 2"><g id="Layer_1-2" data-name="Layer 1"><path class="cls-1" d="M1.08,30.05a15.87,15.87,0,0,0,5.85,1.13A8.76,8.76,0,0,0,9,31a5.7,5.7,0,0,0,1.72-.71,3.93,3.93,0,0,0,1.18-1.15,2.82,2.82,0,0,0,.44-1.53A3.16,3.16,0,0,0,12,26a3.42,3.42,0,0,0-.94-1,6.34,6.34,0,0,0-1.37-.73c-.52-.21-1.07-.4-1.67-.59L6.36,23A12,12,0,0,1,2,20.49,5.26,5.26,0,0,1,.61,16.67,6.22,6.22,0,0,1,2.9,11.59Q5.18,9.7,9.61,9.7a17.94,17.94,0,0,1,3.6.36,22,22,0,0,1,3.09.82A11.1,11.1,0,0,1,16,12.76a12,12,0,0,1-.64,1.75,21.49,21.49,0,0,0-2.47-.73,12.71,12.71,0,0,0-3.09-.36A7.3,7.3,0,0,0,6.67,14,2.19,2.19,0,0,0,5.32,16.2a2.67,2.67,0,0,0,.33,1.37,2.94,2.94,0,0,0,.9,1,6.08,6.08,0,0,0,1.29.69c.49.19,1,.37,1.58.56l2.07.71a14.73,14.73,0,0,1,2.15.9,6.11,6.11,0,0,1,1.74,1.29,6,6,0,0,1,1.18,1.89A7,7,0,0,1,17,27.23a7.14,7.14,0,0,1-.71,3.18,6.93,6.93,0,0,1-2,2.44,9.5,9.5,0,0,1-3.13,1.58A13.69,13.69,0,0,1,7.11,35a21.91,21.91,0,0,1-3.95-.31A20.24,20.24,0,0,1,0,33.87,9.43,9.43,0,0,1,.4,32C.6,31.32.83,30.68,1.08,30.05Z"/><path class="cls-1" d="M27.61,23.51c.06,2.63.74,4.57,2,5.79a8.18,8.18,0,0,0,5.78,1.84A17.47,17.47,0,0,0,41.79,30a7.16,7.16,0,0,1,.61,1.72,11.6,11.6,0,0,1,.28,2,15.94,15.94,0,0,1-3.41,1,23.84,23.84,0,0,1-4.13.33,15.59,15.59,0,0,1-5.65-.92,9.89,9.89,0,0,1-6.12-6.55,16.58,16.58,0,0,1-.71-5,18,18,0,0,1,.68-5,11.39,11.39,0,0,1,2.1-4.05A10,10,0,0,1,29,10.72a11.62,11.62,0,0,1,5.06-1,10.5,10.5,0,0,1,4.38.85,8.83,8.83,0,0,1,3.16,2.33,10.1,10.1,0,0,1,1.93,3.54,14.42,14.42,0,0,1,.66,4.45c0,.44,0,.9,0,1.39s-.06.9-.09,1.25Zm12-3.49a9.08,9.08,0,0,0-.35-2.52,6.3,6.3,0,0,0-1-2.09A4.91,4.91,0,0,0,36.44,14a5.38,5.38,0,0,0-2.52-.55,5.57,5.57,0,0,0-4.41,1.75A8.53,8.53,0,0,0,27.65,20Z"/><path class="cls-1" d="M67.6,30.24a7.64,7.64,0,0,1,.66,1.65,8.69,8.69,0,0,1,.33,2A17.45,17.45,0,0,1,62.23,35q-6,0-9.09-3.41t-3.06-9.22a16.06,16.06,0,0,1,.75-5,11.43,11.43,0,0,1,2.24-4,10.44,10.44,0,0,1,3.7-2.69,12.45,12.45,0,0,1,5.13-1,22.49,22.49,0,0,1,3.49.24,13.45,13.45,0,0,1,2.87.75,9.61,9.61,0,0,1-.21,1.86,8,8,0,0,1-.59,1.86,16.17,16.17,0,0,0-5.27-.8A6.3,6.3,0,0,0,56.77,16,10.33,10.33,0,0,0,55,22.37Q55,26.9,57,29a7.37,7.37,0,0,0,5.56,2.1,16.37,16.37,0,0,0,2.62-.19A11.64,11.64,0,0,0,67.6,30.24Z"/><path class="cls-1" d="M75.19,10.27c.34-.06.67-.11,1-.14a7.81,7.81,0,0,1,1-.05,8.88,8.88,0,0,1,1,.05,8,8,0,0,1,1,.14c.09.47.18,1.09.28,1.86a17.41,17.41,0,0,1,.14,1.95,10,10,0,0,1,2.61-2.78,7,7,0,0,1,4.17-1.17c.25,0,.51,0,.78,0s.5,0,.68.07a7.86,7.86,0,0,1,.15.89c0,.32,0,.65,0,1a9.64,9.64,0,0,1-.07,1.17c-.05.41-.1.8-.16,1.18a3.39,3.39,0,0,0-.78-.09h-.64a8.38,8.38,0,0,0-2.42.35A5,5,0,0,0,81.85,16a6.34,6.34,0,0,0-1.46,2.45,12.38,12.38,0,0,0-.54,4v12a11.16,11.16,0,0,1-1.15.15c-.43,0-.81,0-1.16,0s-.73,0-1.15,0-.82-.08-1.2-.15Z"/><path class="cls-1" d="M96.67,23.51c.07,2.63.75,4.57,2,5.79a8.16,8.16,0,0,0,5.77,1.84A17.43,17.43,0,0,0,110.85,30a6.75,6.75,0,0,1,.61,1.72,10.72,10.72,0,0,1,.29,2,15.87,15.87,0,0,1-3.42,1,23.64,23.64,0,0,1-4.12.33,15.59,15.59,0,0,1-5.65-.92,9.93,9.93,0,0,1-6.13-6.55,16.89,16.89,0,0,1-.71-5,17.6,17.6,0,0,1,.69-5,11.22,11.22,0,0,1,2.09-4.05,10.09,10.09,0,0,1,3.56-2.73,11.7,11.7,0,0,1,5.07-1,10.53,10.53,0,0,1,4.38.85,9,9,0,0,1,3.16,2.33,10.24,10.24,0,0,1,1.92,3.54,14.42,14.42,0,0,1,.66,4.45c0,.44,0,.9,0,1.39s-.07.9-.1,1.25Zm12-3.49a9.08,9.08,0,0,0-.35-2.52,6.5,6.5,0,0,0-1-2.09A5.09,5.09,0,0,0,105.51,14a5.38,5.38,0,0,0-2.52-.55,5.57,5.57,0,0,0-4.41,1.75A8.53,8.53,0,0,0,96.72,20Z"/><path class="cls-1" d="M121.45,14h-3.67l-.19-.66,8.1-9h.38v6h6.12a7.56,7.56,0,0,1,.19,1.79c0,.34,0,.67,0,1s-.08.63-.14.94h-6.12V25a24,24,0,0,0,.16,3.16A4.54,4.54,0,0,0,126.8,30a1.86,1.86,0,0,0,1.08.85,6,6,0,0,0,1.72.21,10.2,10.2,0,0,0,1.51-.11c.47-.08.89-.17,1.27-.26a7.54,7.54,0,0,1,.4,1.93c.05.66.07,1.24.07,1.74a13.62,13.62,0,0,1-2,.35,19.26,19.26,0,0,1-2.21.12,7.84,7.84,0,0,1-5.3-1.65c-1.27-1.09-1.91-2.92-1.91-5.46Z"/><path class="cls-1" d="M151.36,18.51c0-1.85-.47-3.14-1.41-3.86a6.65,6.65,0,0,0-4.1-1.09,17.51,17.51,0,0,0-3.08.26,25.61,25.61,0,0,0-2.81.69,7.43,7.43,0,0,1-.89-3.73,22.16,22.16,0,0,1,3.53-.8,27,27,0,0,1,3.72-.28q4.71,0,7.16,2.15c1.64,1.43,2.45,3.71,2.45,6.85V33.82c-1.1.25-2.43.51-4,.78a28.3,28.3,0,0,1-4.81.4,19,19,0,0,1-4.17-.42,8.56,8.56,0,0,1-3.15-1.37,6.3,6.3,0,0,1-2-2.4,8.13,8.13,0,0,1-.71-3.54,7.16,7.16,0,0,1,3.06-6.09,10.13,10.13,0,0,1,3.25-1.52,15.25,15.25,0,0,1,3.87-.49c1,0,1.82,0,2.47.07s1.18.11,1.62.17Zm0,4.57c-.47-.06-1.06-.12-1.79-.19s-1.33-.09-1.83-.09a7.71,7.71,0,0,0-4.46,1.08,3.78,3.78,0,0,0-1.53,3.3,4.08,4.08,0,0,0,.52,2.21,3.55,3.55,0,0,0,1.3,1.23,4.61,4.61,0,0,0,1.72.52c.62.06,1.22.09,1.78.09a21.58,21.58,0,0,0,2.24-.12,13.18,13.18,0,0,0,2.05-.35Z"/><path class="cls-1" d="M164.13,10.27c.35-.06.68-.11,1-.14a7.9,7.9,0,0,1,1-.05,9.05,9.05,0,0,1,1,.05,7.81,7.81,0,0,1,.94.14c.09.47.19,1.09.28,1.86a15.31,15.31,0,0,1,.14,1.95,9.86,9.86,0,0,1,2.62-2.78,7,7,0,0,1,4.17-1.17c.25,0,.51,0,.77,0s.5,0,.69.07a7.89,7.89,0,0,1,.14.89c0,.32,0,.65,0,1s0,.76-.07,1.17-.11.8-.17,1.18a3.33,3.33,0,0,0-.78-.09h-.63a8.45,8.45,0,0,0-2.43.35A5,5,0,0,0,170.8,16a6.22,6.22,0,0,0-1.46,2.45,12.38,12.38,0,0,0-.54,4v12a11.38,11.38,0,0,1-1.16.15c-.42,0-.81,0-1.15,0s-.73,0-1.16,0-.82-.08-1.2-.15Z"/><path class="cls-1" d="M184.25,13.94h-3.07a8,8,0,0,1-.14-.87c0-.33,0-.65,0-1s0-.64,0-1a8,8,0,0,1,.14-.87h7.64V34.43a11.38,11.38,0,0,1-1.16.15c-.42,0-.81,0-1.15,0s-.69,0-1.11,0a11.16,11.16,0,0,1-1.15-.15Zm-1-9a10.73,10.73,0,0,1-.12-1.22c0-.44,0-.83,0-1.18s0-.74,0-1.18a9.78,9.78,0,0,1,.12-1.18c.41-.06.85-.1,1.32-.13s.88,0,1.23,0,.75,0,1.22.05.89.07,1.27.13a8.1,8.1,0,0,1,.12,1.18c0,.44,0,.84,0,1.18s0,.74,0,1.18a8.85,8.85,0,0,1-.12,1.22c-.38.07-.79.11-1.25.15s-.85,0-1.2,0-.8,0-1.27,0S183.62,5,183.21,4.94Z"/><path class="cls-1" d="M197.3,10.27a11.29,11.29,0,0,1,1.18-.14c.44,0,.81-.05,1.13-.05s.74,0,1.18.05a11.41,11.41,0,0,1,1.17.14V23.51a13.58,13.58,0,0,0,.43,3.74,5.16,5.16,0,0,0,1.27,2.33,4.45,4.45,0,0,0,2.07,1.18,10.94,10.94,0,0,0,2.83.33,14.05,14.05,0,0,0,4.1-.52V10.27a11.32,11.32,0,0,1,1.15-.14c.43,0,.81-.05,1.16-.05s.72,0,1.15.05a11.32,11.32,0,0,1,1.15.14V33.68c-1.1.32-2.41.61-3.93.9a26.09,26.09,0,0,1-4.73.42,22.43,22.43,0,0,1-4.36-.4A8.33,8.33,0,0,1,200.64,33a8.19,8.19,0,0,1-2.45-3.43,16.06,16.06,0,0,1-.89-5.85Z"/><path class="cls-1" d="M225.8,10.27c.34-.06.68-.11,1-.14a8.44,8.44,0,0,1,1-.05,7.39,7.39,0,0,1,1,.05c.3,0,.62.08,1,.14.09.47.18,1.09.28,1.86a17.41,17.41,0,0,1,.14,1.95,9,9,0,0,1,1.06-1.62,7.18,7.18,0,0,1,1.51-1.39,7.47,7.47,0,0,1,2-1,7.86,7.86,0,0,1,2.5-.38,7.16,7.16,0,0,1,4.36,1.16,7.26,7.26,0,0,1,2.33,3.22,12,12,0,0,1,1.15-1.6,8.51,8.51,0,0,1,1.53-1.41A7.29,7.29,0,0,1,251,9.7q4.2,0,6.1,2.36T259,19v15.4a11.45,11.45,0,0,1-1.18.15c-.44,0-.83,0-1.17,0s-.73,0-1.16,0a11.16,11.16,0,0,1-1.15-.15v-14a9.55,9.55,0,0,0-1-4.88,3.53,3.53,0,0,0-3.25-1.63,4.88,4.88,0,0,0-3.89,1.75,7.71,7.71,0,0,0-1.48,5.13V34.43a11.38,11.38,0,0,1-1.16.15c-.42,0-.8,0-1.15,0s-.73,0-1.16,0a11.54,11.54,0,0,1-1.15-.15V20.06a9.51,9.51,0,0,0-.94-4.73,3.26,3.26,0,0,0-3-1.57,4.94,4.94,0,0,0-2.21.51,5.14,5.14,0,0,0-1.81,1.56,7.91,7.91,0,0,0-1.23,2.61,13.35,13.35,0,0,0-.45,3.65V34.43a11.16,11.16,0,0,1-1.15.15c-.42,0-.81,0-1.15,0s-.74,0-1.18,0a11.1,11.1,0,0,1-1.18-.15Z"/></g></g></svg>