<svg xmlns="http://www.w3.org/2000/svg" width="84.97" height="83" viewBox="0 0 84.97 83"><defs><style>.cls-1{fill:none;stroke:#dd003b;stroke-linecap:round;stroke-linejoin:round;stroke-width:3px;}</style></defs><g id="Layer_2" data-name="Layer 2"><g id="Layer_1-2" data-name="Layer 1"><line class="cls-1" x1="1.5" y1="68.62" x2="41.74" y2="68.62"/><polyline class="cls-1" points="4.22 68.13 4.22 33.17 17.76 33.17 17.76 68.13"/><polyline class="cls-1" points="25.73 68.13 25.73 18.02 39.26 18.02 39.26 68.13"/><polyline class="cls-1" points="47.23 44.51 47.23 1.5 60.77 1.5 60.77 37.92"/><path class="cls-1" d="M62.12,38.8A21.35,21.35,0,1,0,83.47,60.15,21.35,21.35,0,0,0,62.12,38.8Z"/><path class="cls-1" d="M70.2,50.83c-1.64.68-15.25,15.58-17.58,17.8"/><polyline class="cls-1" points="70.2 65.97 70.2 50.83 55.06 50.83"/></g></g></svg>