<svg xmlns="http://www.w3.org/2000/svg" width="78.63" height="83" viewBox="0 0 78.63 83"><defs><style>.cls-1{fill:none;stroke:#dd003b;stroke-linecap:round;stroke-linejoin:round;stroke-width:3px;}</style></defs><g id="Layer_2" data-name="Layer 2"><g id="Layer_1-2" data-name="Layer 1"><path class="cls-1" d="M33.55,72.8c-2.14,7-6.83,8.19-8.9,8.19H11.43C5.74,81,1.5,72.56,1.5,66.28c0-15.68,7-27.53,9.84-38V20.64c-1.1-3.51-2.75-6.45-2.75-9.42a9.83,9.83,0,0,1,2.77-6.87,9.25,9.25,0,0,1,13.36,0,9.83,9.83,0,0,1,2.77,6.87c0,2.73-1.58,5.87-2.75,9.19v7.85c1.05,3.81,3.58,10.83,5.72,16.61"/><line class="cls-1" x1="11.34" y1="22.86" x2="24.74" y2="22.86"/><line class="cls-1" x1="11.34" y1="29.04" x2="24.74" y2="29.04"/><path class="cls-1" d="M52.46,32.18A24.66,24.66,0,1,1,27.8,56.84,24.67,24.67,0,0,1,52.46,32.18Z"/><path class="cls-1" d="M61.65,43.13A1.69,1.69,0,1,1,60,44.81a1.69,1.69,0,0,1,1.68-1.68Z"/><path class="cls-1" d="M51.28,43.65a1.69,1.69,0,0,1,0,3.37,1.69,1.69,0,1,1,0-3.37Z"/><path class="cls-1" d="M57.29,52.23a1.69,1.69,0,1,1-1.68,1.69,1.69,1.69,0,0,1,1.68-1.69Z"/></g></g></svg>