<svg xmlns="http://www.w3.org/2000/svg" width="450.1" height="155.03" viewBox="0 0 450.1 155.03"><defs><style>.cls-1{fill:#e10034;}</style></defs><g id="Layer_2" data-name="Layer 2"><g id="Layer_1-2" data-name="Layer 1"><polygon class="cls-1" points="41.6 40.31 0 0 0 80.63 41.6 40.31"/><polygon points="22.9 58.43 83.19 116.87 83.19 0 22.9 58.43"/><path class="cls-1" d="M115.31,59.93h6.34L121,57.19c-.82-3-1.64-6.46-2.41-9.56h-.18c-.73,3.14-1.51,6.6-2.33,9.56Zm-.73-17.4h8.07l9.29,29.7h-7.11L123,65.17H114l-1.83,7.06h-6.83Z"/><rect class="cls-1" x="133.17" y="57.56" width="11.21" height="4.74"/><polygon class="cls-1" points="154.04 48.17 145.88 48.17 145.88 42.53 168.94 42.53 168.94 48.17 160.78 48.17 160.78 72.23 154.04 72.23 154.04 48.17"/><path class="cls-1" d="M185,58.47c0-2.51-1.09-4.28-3.78-4.28-2.1,0-3.92,1.41-4.37,4.28Zm-14.58,2.46c0-7.33,5.24-11.84,10.66-11.84,6.43,0,9.62,4.69,9.62,10.84a14.51,14.51,0,0,1-.28,3H176.86c.59,3.28,2.87,4.78,5.88,4.78a9.12,9.12,0,0,0,4.87-1.5l2.24,4a14.75,14.75,0,0,1-8,2.55c-6.47,0-11.44-4.37-11.44-11.84"/><path class="cls-1" d="M206.52,65.67v-4c-4.74.64-6.29,2-6.29,3.74,0,1.46,1,2.14,2.6,2.14s2.5-.73,3.69-1.91m-12.71.27c0-4.74,3.78-7.33,12.71-8.24-.14-2-1.09-3.28-3.55-3.28a11.93,11.93,0,0,0-6,2l-2.42-4.42a18.7,18.7,0,0,1,9.66-3c5.79,0,9,3.28,9,10.2V72.23h-5.47l-.46-2.32h-.18a9.84,9.84,0,0,1-6.56,2.86,6.5,6.5,0,0,1-6.74-6.83"/><path class="cls-1" d="M218.41,49.63h5.47l.45,2.92h.18c1.87-1.87,3.88-3.46,6.84-3.46a6.24,6.24,0,0,1,6.24,3.78c2-2,4.1-3.78,7.11-3.78,4.87,0,7.06,3.46,7.06,9.11v14h-6.7V59.06c0-3.28-.87-4.28-2.78-4.28-1.14,0-2.41.73-3.87,2.19V72.23h-6.7V59.06c0-3.28-.86-4.28-2.78-4.28-1.09,0-2.41.73-3.82,2.19V72.23h-6.7Z"/><path d="M122.15,103.6,121.1,100c-.91-3.14-1.82-6.56-2.68-9.84h-.19c-.82,3.33-1.68,6.7-2.64,9.84l-1,3.65Zm1.19,4.14h-10L111,115.81h-5.42L115.36,86h6.2l9.7,29.8h-5.6Z"/><path d="M131.72,93.44H137l2.69,11.62c.46,2.14.78,4.23,1.19,6.42h.18c.41-2.19.86-4.33,1.41-6.42l2.92-11.62h4.78l3,11.62c.55,2.14,1,4.23,1.5,6.42h.19c.41-2.19.77-4.28,1.18-6.42l2.69-11.62h4.92l-5.7,22.37h-6.24l-2.59-10.44c-.51-2.09-.87-4.14-1.37-6.51h-.18c-.41,2.37-.82,4.46-1.32,6.56l-2.56,10.39h-6Z"/><path d="M174.91,112.25c1.82,0,3.23-.91,4.87-2.46v-5c-6.06.78-8.06,2.37-8.06,4.6,0,2,1.32,2.87,3.19,2.87m4.87-10.75c0-2.37-1.05-4.37-4.05-4.37a12.42,12.42,0,0,0-6.29,2.19l-1.91-3.51a17.31,17.31,0,0,1,9.15-2.92c5.61,0,8.34,3.42,8.34,9.66v13.26h-4.28l-.41-2.46h-.14a10.89,10.89,0,0,1-6.92,3,6.29,6.29,0,0,1-6.65-6.56c0-4.78,4-7.29,13.16-8.29"/><path d="M190.94,93.44h4.33l.37,4h.18c1.59-2.91,4-4.51,6.33-4.51a5.65,5.65,0,0,1,2.55.46l-.91,4.55a7.24,7.24,0,0,0-2.32-.36c-1.78,0-3.92,1.23-5.29,4.6v13.67h-5.24Z"/><path d="M216.59,112c1.73,0,3.19-.77,4.69-2.5V99.09a6.63,6.63,0,0,0-4.55-1.87c-2.87,0-5.19,2.69-5.19,7.38s1.82,7.42,5.05,7.42m-1-19.13a8.28,8.28,0,0,1,5.88,2.46l-.19-3.6V83.64h5.24v32.17H222.2l-.37-2.42h-.18a9.32,9.32,0,0,1-6.33,3c-5.61,0-9.21-4.33-9.21-11.71s4.61-11.75,9.48-11.75"/><path d="M233,109.88a10,10,0,0,0,6.19,2.51c2.42,0,3.56-1.14,3.56-2.69,0-1.87-2.42-2.69-4.79-3.6-3-1.09-6.28-2.78-6.28-6.51,0-3.92,3.14-6.7,8.15-6.7a12.12,12.12,0,0,1,7.43,2.69l-2.42,3.19a8.32,8.32,0,0,0-4.92-1.92c-2.23,0-3.28,1.05-3.28,2.47,0,1.73,2.24,2.45,4.65,3.32,3,1.14,6.42,2.6,6.42,6.79,0,3.83-3,6.92-8.7,6.92a14.21,14.21,0,0,1-8.47-3.09Z"/><path d="M259.19,112.75c8.06-7.79,13.12-12.89,13.12-17.31,0-3-1.69-5-4.79-5-2.23,0-4.09,1.5-5.64,3.24L259,90.75c2.64-2.82,5.29-4.46,9.25-4.46,5.56,0,9.16,3.5,9.16,8.88,0,5.15-4.79,10.43-10.53,16.49,1.51-.14,3.42-.32,4.83-.32h7.11v4.47H259.19Z"/><path d="M296.86,101.18c0-8.2-2-10.79-4.82-10.79s-4.83,2.59-4.83,10.79,2.05,11.07,4.83,11.07,4.82-2.87,4.82-11.07m-14.66,0c0-9.79,3.82-14.89,9.84-14.89s9.84,5.14,9.84,14.89-3.83,15.17-9.84,15.17-9.84-5.37-9.84-15.17"/><path d="M303.88,112.75C311.94,105,317,99.86,317,95.44c0-3-1.69-5-4.78-5-2.24,0-4.1,1.5-5.65,3.24l-2.92-2.92c2.64-2.82,5.29-4.46,9.25-4.46,5.56,0,9.16,3.5,9.16,8.88,0,5.15-4.79,10.43-10.53,16.49,1.51-.14,3.42-.32,4.83-.32h7.11v4.47H303.88Z"/><path d="M327.89,111.52h6.47v-19H329V89.2a19.35,19.35,0,0,0,6.69-2.37h3.92v24.69h5.7v4.29H327.89Z"/><rect x="263.32" y="42.28" width="2.1" height="30.02"/><path d="M273.57,50.43h1.73l.18,3.37h.14c2.23-2.23,4.51-3.91,7.51-3.91,4.51,0,6.61,2.73,6.61,8.38v14h-2V58.54c0-4.64-1.45-6.83-5-6.83-2.59,0-4.46,1.37-7.15,4.1V72.3h-2Z"/><path d="M297.35,50.43h1.73l.18,3.37h.14c2.23-2.23,4.51-3.91,7.51-3.91,4.51,0,6.61,2.73,6.61,8.38v14h-2V58.54c0-4.64-1.46-6.83-5-6.83-2.59,0-4.46,1.37-7.15,4.1V72.3h-2Z"/><path d="M336.84,61.41c0-5.78-3.32-9.75-7.74-9.75s-7.7,4-7.7,9.75,3.28,9.66,7.7,9.66,7.74-3.92,7.74-9.66m-17.54,0c0-7.33,4.56-11.52,9.8-11.52s9.84,4.19,9.84,11.52-4.56,11.44-9.84,11.44-9.8-4.19-9.8-11.44"/><path d="M341.4,50.43h2.19l4.92,13.72c.68,2.09,1.5,4.28,2.18,6.28h.19c.73-2,1.5-4.19,2.23-6.28L358,50.43h2.05L352,72.3H349.6Z"/><path d="M376.93,67.56V60.14c-9,1-12.07,3.14-12.07,6.6,0,3.15,2.15,4.38,4.65,4.38s4.69-1.23,7.42-3.56m-14.12-.73c0-4.83,4.38-7.15,14.12-8.24.05-3.33-.86-6.93-5.19-6.93a12.31,12.31,0,0,0-7,2.56l-.91-1.51A14.79,14.79,0,0,1,372,49.89c5.14,0,6.92,3.73,6.92,8.43v14h-1.73L377,69.48h-.14c-2.23,1.77-4.87,3.37-7.75,3.37-3.46,0-6.33-1.87-6.33-6"/><path d="M386.78,66.24V52.16h-3.42V50.62l3.46-.19.27-6.33h1.74v6.33h6.33v1.73h-6.33V66.42c0,2.78.68,4.65,3.69,4.65a7.46,7.46,0,0,0,2.73-.68l.54,1.64a12.34,12.34,0,0,1-3.55.82c-4.24,0-5.46-2.69-5.46-6.61"/><path d="M400,50.43h2V72.3h-2Zm-.77-7.06a1.82,1.82,0,0,1,3.64,0,1.82,1.82,0,0,1-3.64,0"/><path d="M425.73,61.41c0-5.78-3.33-9.75-7.75-9.75s-7.7,4-7.7,9.75,3.28,9.66,7.7,9.66,7.75-3.92,7.75-9.66m-17.54,0c0-7.33,4.55-11.52,9.79-11.52s9.84,4.19,9.84,11.52S423.27,72.85,418,72.85s-9.79-4.19-9.79-11.44"/><path d="M433.93,50.43h1.73l.18,3.37H436c2.23-2.23,4.51-3.91,7.52-3.91,4.5,0,6.6,2.73,6.6,8.38v14h-2V58.54c0-4.64-1.46-6.83-5-6.83-2.59,0-4.46,1.37-7.15,4.1V72.3h-2Z"/><path d="M106.87,142h-1.11v-.57l1.11-.07v-1.8c0-1.61.72-2.43,2-2.43a3,3,0,0,1,1.18.27l-.2.6a2.32,2.32,0,0,0-1-.23c-.86,0-1.27.66-1.27,1.84v1.75h1.87V142h-1.87v7.46h-.74Z"/><path d="M111,141.31h.64l.07,1.5h0a2.78,2.78,0,0,1,2.29-1.7,1.6,1.6,0,0,1,.81.17l-.17.67a1.75,1.75,0,0,0-.74-.13c-.72,0-1.58.56-2.21,2.07v5.52H111Z"/><path d="M121.85,145.38c0-2.14-1.23-3.61-2.87-3.61s-2.85,1.47-2.85,3.61S117.35,149,119,149s2.87-1.46,2.87-3.58m-6.5,0c0-2.72,1.69-4.27,3.63-4.27s3.65,1.55,3.65,4.27-1.69,4.23-3.65,4.23-3.63-1.55-3.63-4.23"/><path d="M124.89,141.31h.64l.07,1.25h.05a3.68,3.68,0,0,1,2.54-1.45,2.12,2.12,0,0,1,2.25,1.65,4.07,4.07,0,0,1,2.75-1.65c1.62,0,2.43,1,2.43,3.1v5.2h-.76v-5.09c0-1.73-.57-2.54-1.81-2.54a3.55,3.55,0,0,0-2.43,1.52v6.11h-.74v-5.09c0-1.73-.57-2.54-1.82-2.54a3.59,3.59,0,0,0-2.43,1.52v6.11h-.74Z"/><path class="cls-1" d="M152.41,142.43l-.41-1.56c-.47-1.68-.91-3.67-1.38-5.43h-.1c-.39,1.78-.85,3.75-1.32,5.43l-.41,1.56Zm.78,3H148l-1,4h-3.89l5.31-16.87H153l5.31,16.87h-4Z"/><rect class="cls-1" x="158.9" y="141.52" width="6.37" height="2.69"/><polygon class="cls-1" points="170.75 135.75 166.09 135.75 166.09 132.54 179.19 132.54 179.19 135.75 174.55 135.75 174.55 149.41 170.75 149.41 170.75 135.75"/><path class="cls-1" d="M188.29,141.68c0-1.48-.62-2.51-2.15-2.51-1.19,0-2.22.8-2.48,2.51Zm-2.23-5.41c3.65,0,5.46,2.66,5.46,6.16a7.42,7.42,0,0,1-.15,1.6h-7.69a3.11,3.11,0,0,0,3.34,2.79,5.15,5.15,0,0,0,2.77-.85l1.27,2.3a8.37,8.37,0,0,1-4.56,1.45c-3.67,0-6.49-2.48-6.49-6.72s3-6.73,6.05-6.73"/><path class="cls-1" d="M198.53,146.77a2.85,2.85,0,0,0,2.12-1.08v-2.25c-2.71.36-3.59,1.13-3.59,2.12,0,.82.57,1.21,1.47,1.21m2.12-5.61a1.77,1.77,0,0,0-2-1.86,6.94,6.94,0,0,0-3.42,1.16L193.88,138a10.61,10.61,0,0,1,5.48-1.68c3.29,0,5.1,1.86,5.1,5.79v7.35h-3.11l-.28-1.32H201a5.63,5.63,0,0,1-3.75,1.63,3.69,3.69,0,0,1-3.8-3.88c0-2.69,2.14-4.16,7.21-4.68"/><path class="cls-1" d="M207.46,136.58h3.1l.26,1.65h.1a5.37,5.37,0,0,1,3.88-2,3.55,3.55,0,0,1,3.55,2.15c1.14-1.17,2.33-2.15,4-2.15,2.76,0,4,2,4,5.17v8h-3.81v-7.48c0-1.86-.49-2.43-1.58-2.43a3.45,3.45,0,0,0-2.2,1.24v8.67H215v-7.48c0-1.86-.49-2.43-1.58-2.43a3.37,3.37,0,0,0-2.17,1.24v8.67h-3.8Z"/><path d="M234.23,140.85c0-5.41,3-8.8,7.53-8.8a6.21,6.21,0,0,1,4.66,2l-.7.81a5,5,0,0,0-3.93-1.76c-3.91,0-6.32,3-6.32,7.71s2.28,7.79,6.16,7.79a5.52,5.52,0,0,0,3.83-1.3V142h-4.09v-1h5.23v6.75a6.8,6.8,0,0,1-5,1.94c-4.39,0-7.32-3.44-7.32-8.87"/><path d="M250.58,137h1l.11,2.31h.07c.83-1.53,2-2.62,3.52-2.62a2.56,2.56,0,0,1,1.25.26l-.26,1a2.66,2.66,0,0,0-1.14-.21c-1.11,0-2.43.85-3.39,3.18v8.46h-1.14Z"/><path d="M267.19,143.23c0-3.29-1.89-5.54-4.4-5.54s-4.37,2.25-4.37,5.54,1.86,5.48,4.37,5.48,4.4-2.22,4.4-5.48m-10,0c0-4.17,2.59-6.55,5.56-6.55s5.59,2.38,5.59,6.55-2.59,6.49-5.59,6.49-5.56-2.38-5.56-6.49"/><path d="M271.66,145v-8h1.14v7.82c0,2.64.83,3.88,2.82,3.88,1.48,0,2.56-.78,4-2.54V137h1.14v12.42h-1l-.13-2.07h-.05c-1.21,1.42-2.51,2.38-4.21,2.38-2.57,0-3.76-1.55-3.76-4.76"/><path d="M294.41,143c0-3.05-1.09-5.33-3.94-5.33-1.24,0-2.56.73-4.06,2.05v7.37a6.1,6.1,0,0,0,3.67,1.6c2.51,0,4.33-2.33,4.33-5.69m-9.14-6h1l.11,1.55h.08a7.29,7.29,0,0,1,4.21-1.86c3.32,0,5,2.49,5,6.34,0,4.22-2.56,6.7-5.48,6.7a6.59,6.59,0,0,1-3.73-1.52V155h-1.14Z"/></g></g></svg>